<svg xmlns="http://www.w3.org/2000/svg" data-name="Layer 1" viewBox="25 25 78 78"><path fill="none" d="M93.07,27.93H34.93a7,7,0,0,0-7,7V93.07a7,7,0,0,0,7,7H93.07a7,7,0,0,0,7-7V34.93A7,7,0,0,0,93.07,27.93Zm3,65.14a3,3,0,0,1-3,3H34.93a3,3,0,0,1-3-3V34.93a3,3,0,0,1,3-3H93.07a3,3,0,0,1,3,3Z"/><path fill="#000" d="M82.49,42.66,70.41,54.75H46.8a2,2,0,0,0,0,4H66.42L55.93,69.25H46.8a2,2,0,0,0,0,4h5.14l-9.26,9.27a2,2,0,1,0,2.83,2.82L57.59,73.25H81.2a2,2,0,0,0,0-4H61.58l10.49-10.5H81.2a2,2,0,0,0,0-4H76.06l9.26-9.27a2,2,0,0,0-2.83-2.82Z"/></svg>